<?xml version="1.0" encoding="UTF-8" standalone="no"?><svg xmlns="http://www.w3.org/2000/svg" xmlns:xlink="http://www.w3.org/1999/xlink"><symbol viewBox="0 0 4.233 4.233" id="ace_streak_col" xmlns="http://www.w3.org/2000/svg"><path style="fill:none;stroke:#d01;stroke-width:.529167;stroke-linecap:round;stroke-linejoin:round;stroke-miterlimit:4;stroke-dasharray:none;stroke-opacity:1" d="M3.04 3.969H1.193c.74-.508.924-1.19.924-1.19s.184.682.923 1.19z"/><path style="fill:none;stroke:#d01;stroke-width:.529167;stroke-linecap:round;stroke-linejoin:round;stroke-miterlimit:4;stroke-dasharray:none;stroke-opacity:1" d="M2.844 3.175c.606 0 .86-.527.86-.917 0-1.04-1.059-1.249-1.587-1.993-.529.744-1.588.953-1.588 1.993 0 .39.254.917.86.917.536 0 .728-.397.728-.397s.192.397.727.397z"/></symbol><symbol viewBox="0 0 8 8" id="arrow_value_down" xmlns="http://www.w3.org/2000/svg"><path transform="matrix(1 0 0 1.01036 2.618 1.142)" d="m5.382-.141-4 6.928-4-6.928z" style="fill:#4f5660;fill-opacity:1;stroke:none;stroke-width:3.97943;stroke-linecap:square;stroke-linejoin:round;stroke-opacity:.5"/></symbol><symbol viewBox="0 0 8 8" id="arrow_value_up" xmlns="http://www.w3.org/2000/svg"><path style="fill:#0af;fill-opacity:1;stroke:none;stroke-width:3.97943;stroke-linecap:square;stroke-linejoin:round;stroke-opacity:.5" d="m5.382-.141-4 6.928-4-6.928z" transform="matrix(1 0 0 -1.01036 2.618 6.858)"/></symbol><symbol viewBox="0 0 24 24" id="avatar_arrow_redo" xmlns="http://www.w3.org/2000/svg"><g fill="none" stroke="#FFF" stroke-linecap="round" stroke-width="2"><path stroke-miterlimit="10" d="M22 16a10.9 10.9 0 0 0-21 0"/><path stroke-linejoin="round" d="M15 16h8V8"/></g></symbol><symbol viewBox="0 0 24 24" id="avatar_arrow_undo" xmlns="http://www.w3.org/2000/svg"><g fill="none" stroke="#FFF" stroke-linecap="round" stroke-width="2"><path stroke-miterlimit="10" d="M2 16a10.9 10.9 0 0 1 21 0"/><path stroke-linejoin="round" d="M9 16H1V8"/></g></symbol><symbol viewBox="0 0 24 24" id="avatar_paint" xmlns="http://www.w3.org/2000/svg"><path fill="none" stroke="#FFF" stroke-width="2" d="M17 11a6 6 0 0 0 0 12c1.5 0 2-1.25 2-2 0-1.25.75-2 2-2 .75 0 2-.5 2-2a6 6 0 0 0-6-6z"/><path d="M13.04 17a1 1 0 1 0 2 0 1 1 0 0 0-2 0zm5.52-3.6a1 1 0 1 0-.04 2 1 1 0 0 0 .04-2Zm-3 5.2a1 1 0 1 0-.04 2 1 1 0 0 0 .04-2zm-.52-5.06a1 1 0 1 0 1 1.73 1 1 0 0 0-1-1.73ZM1 7a1 1 0 0 0-1 1v7a1 1 0 0 0 1 1h3v6a1 1 0 0 0 1 1h3.25a1 1 0 0 0 .75-.34 1 1 0 0 0 .75.34h1.99a8.08 8.08 0 0 1-1.65-2H10v-.14A7.92 7.92 0 0 1 9.07 16 1 1 0 0 0 9 16a1 1 0 0 0-1 1v4H6v-6a1 1 0 0 0-1-1H2V9h4a1 1 0 0 0 .66-.25A4.02 4.02 0 0 1 4.56 7Zm12.44 0a4.02 4.02 0 0 1-2.1 1.75A1 1 0 0 0 12 9h4v.07a7.94 7.94 0 0 1 2 0V8a1 1 0 0 0-1-1ZM8 0a3 3 0 0 0-3 3v2a3 3 0 0 0 3 3h2a3 3 0 0 0 3-3V3a3 3 0 0 0-3-3Zm0 2h2c.56 0 1 .44 1 1v2c0 .56-.44 1-1 1H8c-.56 0-1-.44-1-1V3c0-.56.44-1 1-1Z" fill="#FFF"/></symbol><symbol viewBox="0 0 24 24" id="avatar_reset" xmlns="http://www.w3.org/2000/svg"><path fill="none" stroke="#FFF" stroke-linecap="round" stroke-linejoin="round" stroke-width="2" d="m13 15 8 8m0-8-8 8"/><path d="M9 0a3 3 0 0 0-3 3v2a3 3 0 0 0 3 3h2a3 3 0 0 0 3-3V3a3 3 0 0 0-3-3Zm0 2h2c.56 0 1 .44 1 1v2c0 .56-.44 1-1 1H9c-.56 0-1-.44-1-1V3c0-.56.44-1 1-1ZM2 7a1 1 0 0 0-1 1v7a1 1 0 0 0 1 1h3v6a1 1 0 0 0 1 1h3.25a1 1 0 0 0 .75-.34 1 1 0 0 0 .75.34h.26a2 2 0 0 1 .58-1.41l.58-.59H11v-4a1 1 0 1 0-2 0v4H7v-6a1 1 0 0 0-1-1H3V9h4a1 1 0 0 0 .66-.25A4.02 4.02 0 0 1 5.56 7Zm12.44 0a4.02 4.02 0 0 1-2.1 1.75A1 1 0 0 0 13 9h4v5h-2.17l2 2h.34L19 14.17V8a1 1 0 0 0-1-1Z" fill="#FFF"/></symbol><symbol viewBox="0 0 24 24" id="avatar_save" xmlns="http://www.w3.org/2000/svg"><path fill="none" stroke="#FFF" stroke-linecap="round" stroke-linejoin="round" stroke-width="2" d="M17 22s5-3 5-6.5c0-1.38-1-2.5-2.5-2.5-2 0-2.5 2-2.5 2s-.5-2-2.5-2C13 13 12 14.12 12 15.5c0 3.5 5 6.5 5 6.5z"/><path d="M2 7a1 1 0 0 0-1 1v7a1 1 0 0 0 1 1h3v6a1 1 0 0 0 1 1h3.25a1 1 0 0 0 .75-.34 1 1 0 0 0 .75.34H14a1 1 0 0 0 .63-.22 16.7 16.7 0 0 1-1.5-1.27c-.17-.15-.33-.34-.5-.51H11v-2.04a6.8 6.8 0 0 1-.96-2.96 1 1 0 0 0-.04 0 1 1 0 0 0-1 1v4H7v-6a1 1 0 0 0-1-1H3V9h4a1 1 0 0 0 .66-.25A4.02 4.02 0 0 1 5.56 7Zm12.44 0a4.02 4.02 0 0 1-2.1 1.75A1 1 0 0 0 13 9h4v2.85a4.5 4.5 0 0 1 2-.8V8a1 1 0 0 0-1-1ZM9 0a3 3 0 0 0-3 3v2a3 3 0 0 0 3 3h2a3 3 0 0 0 3-3V3a3 3 0 0 0-3-3Zm0 2h2c.56 0 1 .44 1 1v2c0 .56-.44 1-1 1H9c-.56 0-1-.44-1-1V3c0-.56.44-1 1-1Z" fill="#FFF"/></symbol><symbol viewBox="0 0 288 288" id="double_arrow" xmlns="http://www.w3.org/2000/svg"><svg xmlns="http://www.w3.org/2000/svg" width="288" height="288" viewBox="0 0 16 16"><path fill="none" stroke="#000" stroke-linecap="round" stroke-linejoin="round" stroke-width="2" d="M2 6h12l-4-3v3m4 4H2l4 3v-3"/></svg></symbol><symbol viewBox="0 0 16 16" id="info" xmlns="http://www.w3.org/2000/svg"><path d="M8 8.5v-3" style="fill:none;stroke:#00a8ff;stroke-width:2;stroke-linecap:round;stroke-linejoin:miter;stroke-miterlimit:4;stroke-dasharray:none;stroke-opacity:1"/><circle r="1" cy="11.25" cx="8" style="fill:#00a8ff;fill-opacity:1;stroke:none;stroke-width:0;stroke-linecap:round;stroke-linejoin:round;stroke-miterlimit:4;stroke-dasharray:none;stroke-opacity:1"/><path transform="matrix(1.16028 0 0 1.12194 -1.578 -1.78)" d="M13.13 14.08H3.38a1.155 1.155 60 0 1-1-1.733l4.875-8.443a1.155 1.155 0 0 1 2 0l4.875 8.443a1.155 1.155 120 0 1-1 1.732z" style="fill:none;stroke:#00a8ff;stroke-width:1.75292781;stroke-linecap:round;stroke-linejoin:round;stroke-miterlimit:4;stroke-dasharray:none;stroke-opacity:1"/></symbol><symbol viewBox="0 0 14 14" id="layers_arrow_down" xmlns="http://www.w3.org/2000/svg"><path fill="none" stroke="#FFF" stroke-linecap="round" stroke-linejoin="round" stroke-width="2" d="m1 4 6 6 6-6"/></symbol><symbol viewBox="0 0 14 14" id="layers_arrow_up" xmlns="http://www.w3.org/2000/svg"><path fill="none" stroke="#FFF" stroke-linecap="round" stroke-linejoin="round" stroke-width="2" d="m1 10 6-6 6 6"/></symbol><symbol viewBox="0 0 14 14" id="layers_hamburger" xmlns="http://www.w3.org/2000/svg"><path fill="none" stroke="#FFF" stroke-linecap="round" stroke-linejoin="round" stroke-width="2" d="M2 3h10M2 7h10M2 11h10"/></symbol><symbol viewBox="0 0 4.23 4.23" id="mint_streak_col" xmlns="http://www.w3.org/2000/svg"><g fill="none" stroke="#0af" stroke-linecap="round" stroke-linejoin="round" stroke-width=".53"><path stroke-dashoffset="22.4" d="M3.03 3.03a1.8 1.83 45.26 0 0-.38-1.98A1.8 1.83 45.26 0 0 .68.68a1.8 1.83 45.26 0 0 .37 1.97 1.8 1.83 45.26 0 0 1.98.38Z"/><path d="M2.12 2.12 3.7 3.7"/></g></symbol><symbol viewBox="0 0 4.233 4.233" id="royal_streak_col" xmlns="http://www.w3.org/2000/svg"><path style="fill:none;stroke:#fb0;stroke-width:.529167;stroke-linecap:round;stroke-linejoin:round;stroke-miterlimit:4;stroke-dasharray:none;stroke-opacity:1" d="M3.44 3.307 3.969.926 2.91 1.984 2.117.926l-.794 1.058L.265.926l.529 2.381z"/></symbol><symbol viewBox="0 0 20 20" id="value" xmlns="http://www.w3.org/2000/svg"><path style="fill:none;fill-opacity:1;stroke:#cbcbd3;stroke-width:2;stroke-linecap:round;stroke-linejoin:round;stroke-miterlimit:4;stroke-dasharray:none;stroke-opacity:1" d="M7 12h12l-4-3v3M19 16H7l4 3v-3"/><path style="color:#000;font-style:normal;font-variant:normal;font-weight:400;font-stretch:normal;font-size:medium;line-height:normal;font-family:sans-serif;font-variant-ligatures:normal;font-variant-position:normal;font-variant-caps:normal;font-variant-numeric:normal;font-variant-alternates:normal;font-variant-east-asian:normal;font-feature-settings:normal;font-variation-settings:normal;text-indent:0;text-align:start;text-decoration:none;text-decoration-line:none;text-decoration-style:solid;text-decoration-color:#000;letter-spacing:normal;word-spacing:normal;text-transform:none;writing-mode:lr-tb;direction:ltr;text-orientation:mixed;dominant-baseline:auto;baseline-shift:baseline;text-anchor:start;white-space:normal;shape-padding:0;shape-margin:0;inline-size:0;clip-rule:nonzero;display:inline;overflow:visible;visibility:visible;opacity:1;isolation:auto;mix-blend-mode:normal;color-interpolation:sRGB;color-interpolation-filters:linearRGB;solid-color:#000;solid-opacity:1;vector-effect:none;fill:#cbcbd3;fill-opacity:1;fill-rule:nonzero;stroke:none;stroke-width:2;stroke-linecap:round;stroke-linejoin:round;stroke-miterlimit:4;stroke-dasharray:none;stroke-dashoffset:0;stroke-opacity:1;color-rendering:auto;image-rendering:auto;shape-rendering:auto;text-rendering:auto;enable-background:accumulate;stop-color:#000;stop-opacity:1" d="M8 0c-.455 0-.91.108-1.328.324L1.41 3.044C.575 3.478 0 4.327 0 5.28v5.442c0 .953.575 1.802 1.41 2.234l3.899 2.016C5.652 14.42 6.266 14 7 14c-1.093 0-2-.907-2-2s.907-2 2-2h6V9c0-1.071.87-1.969 1.941-2 .373-.01.739.088 1.059.273V5.28c0-.953-.575-1.802-1.41-2.234L9.328.325A2.89 2.89 0 0 0 8 0Zm0 2.006c.145 0 .29.032.41.094l5.262 2.72c.24.124.328.3.328.46 0 .158-.088.334-.328.458L8.41 8.46a.95.95 0 0 1-.82 0l-5.262-2.72C2.088 5.613 2 5.437 2 5.278c0-.158.088-.335.328-.459L7.59 2.1A.905.905 0 0 1 8 2.006Z"/></symbol></svg>