<?xml version="1.0" encoding="utf-8"?><svg xmlns="http://www.w3.org/2000/svg" xmlns:xlink="http://www.w3.org/1999/xlink"><symbol viewBox="0 0 200 200" fill="none" stroke-linecap="square" stroke-miterlimit="10" id="blue" xmlns="http://www.w3.org/2000/svg"><clipPath id="ada"><path d="M0 0h200v200H0V0z"/></clipPath><g clip-path="url(#ada)"><path fill="none" d="M0 0h200v200H0z"/><path fill="#0000d3" d="M13.16 113.168c0-47.958 38.877-86.835 86.835-86.835a86.835 86.835 0 0 1 86.834 86.835c0 47.957-38.877 86.835-86.834 86.835-47.958 0-86.835-38.878-86.835-86.835z" fill-rule="evenodd"/><path fill="#ffe4ba" d="M85.9 13.714c0-7.576 6.31-13.717 14.094-13.717 3.738 0 7.323 1.446 9.966 4.018 2.644 2.572 4.129 6.061 4.129 9.699 0 7.575-6.31 13.716-14.095 13.716-7.784 0-14.094-6.14-14.094-13.716zm6.754 0c0 3.845 3.286 6.962 7.34 6.962s7.34-3.117 7.34-6.962c0-3.845-3.286-6.962-7.34-6.962s-7.34 3.117-7.34 6.962z" fill-rule="evenodd"/><path fill="#ffe4ba" d="M79.825 16.896a2.75 2.75 0 0 1 2.75-2.751h34.846a2.75 2.75 0 0 1 2.75 2.75v11.003a2.75 2.75 0 0 1-2.75 2.75H82.576a2.75 2.75 0 0 1-2.751-2.75z" fill-rule="evenodd"/></g></symbol><symbol viewBox="0 0 200 200" fill="none" stroke-linecap="square" stroke-miterlimit="10" id="green" xmlns="http://www.w3.org/2000/svg"><clipPath id="aca"><path d="M0 0h200v200H0V0z"/></clipPath><g clip-path="url(#aca)"><path fill="none" d="M0 0h200v200H0z"/><path fill="#00d30f" d="M13.16 113.168c0-47.958 38.877-86.835 86.835-86.835a86.835 86.835 0 0 1 86.834 86.835c0 47.957-38.877 86.835-86.834 86.835-47.958 0-86.835-38.878-86.835-86.835z" fill-rule="evenodd"/><path fill="#ffe4ba" d="M85.9 13.714c0-7.576 6.31-13.717 14.094-13.717 3.738 0 7.323 1.446 9.966 4.018 2.644 2.572 4.129 6.061 4.129 9.699 0 7.575-6.31 13.716-14.095 13.716-7.784 0-14.094-6.14-14.094-13.716zm6.754 0c0 3.845 3.286 6.962 7.34 6.962s7.34-3.117 7.34-6.962c0-3.845-3.286-6.962-7.34-6.962s-7.34 3.117-7.34 6.962z" fill-rule="evenodd"/><path fill="#ffe4ba" d="M79.825 16.896a2.75 2.75 0 0 1 2.75-2.751h34.846a2.75 2.75 0 0 1 2.75 2.75v11.003a2.75 2.75 0 0 1-2.75 2.75H82.576a2.75 2.75 0 0 1-2.751-2.75z" fill-rule="evenodd"/></g></symbol><symbol viewBox="0 0 200 200" fill="none" stroke-linecap="square" stroke-miterlimit="10" id="red" xmlns="http://www.w3.org/2000/svg"><clipPath id="aba"><path d="M0 0h200v200H0V0z"/></clipPath><g clip-path="url(#aba)"><path fill="none" d="M0 0h200v200H0z"/><path fill="red" d="M13.16 113.168c0-47.958 38.877-86.835 86.835-86.835a86.835 86.835 0 0 1 86.834 86.835c0 47.957-38.877 86.835-86.834 86.835-47.958 0-86.835-38.878-86.835-86.835z" fill-rule="evenodd"/><path fill="#ffe4ba" d="M85.9 13.714c0-7.576 6.31-13.717 14.094-13.717 3.738 0 7.323 1.446 9.966 4.018 2.644 2.572 4.129 6.061 4.129 9.699 0 7.575-6.31 13.716-14.095 13.716-7.784 0-14.094-6.14-14.094-13.716zm6.754 0c0 3.845 3.286 6.962 7.34 6.962s7.34-3.117 7.34-6.962c0-3.845-3.286-6.962-7.34-6.962s-7.34 3.117-7.34 6.962z" fill-rule="evenodd"/><path fill="#ffe4ba" d="M79.825 16.896a2.75 2.75 0 0 1 2.75-2.751h34.846a2.75 2.75 0 0 1 2.75 2.75v11.003a2.75 2.75 0 0 1-2.75 2.75H82.576a2.75 2.75 0 0 1-2.751-2.75z" fill-rule="evenodd"/></g></symbol><symbol viewBox="0 0 200 200" fill="none" stroke-linecap="square" stroke-miterlimit="10" id="yellow" xmlns="http://www.w3.org/2000/svg"><clipPath id="aaa"><path d="M0 0h200v200H0V0z"/></clipPath><g clip-path="url(#aaa)"><path fill="none" d="M0 0h200v200H0z"/><path fill="#ffb417" d="M78.377 187.253 100 149.898l21.622 37.355z" fill-rule="evenodd"/><path fill="#f1c232" d="m0 77.56 73.047-4.602L100 4.945l26.952 68.013L200 77.561l-56.39 46.636 18.193 70.858L100 155.865l-61.803 39.19 18.193-70.858z" fill-rule="evenodd"/></g></symbol></svg>