<?xml version="1.0" encoding="utf-8"?><svg xmlns="http://www.w3.org/2000/svg" xmlns:xlink="http://www.w3.org/1999/xlink"><symbol viewBox="0 0 12 12" id="arrow_left" xmlns="http://www.w3.org/2000/svg"><path fill="none" stroke="#000" stroke-linecap="round" stroke-linejoin="round" stroke-width="2" d="m8.45 1-4.9 5 4.9 5"/></symbol><symbol viewBox="0 0 12 12" id="arrow_right" xmlns="http://www.w3.org/2000/svg"><path fill="none" stroke="#000" stroke-linecap="round" stroke-linejoin="round" stroke-width="2" d="m3.55 1 4.9 5-4.9 5"/></symbol><symbol viewBox="0 0 10 10" id="dropdown_arrow" xmlns="http://www.w3.org/2000/svg"><path fill="none" stroke="#000" stroke-linecap="round" stroke-linejoin="round" stroke-width="1.5" d="M.75 2.75 5 7.25l4.25-4.5"/></symbol><symbol viewBox="0 0 16 16" id="icon_creator" xmlns="http://www.w3.org/2000/svg"><path fill="none" stroke="#f39b00" stroke-linejoin="round" stroke-width="1.5" d="M4 7.75a1.25 1.25 0 1 0 0 2.5h2.22L6 12a1.98 1.98 0 0 0 2 2.25A1.98 1.98 0 0 0 10 12l-.22-1.75H12a1.25 1.25 0 1 0 0-2.5z"/><path fill="#f39b00" d="M3.25 1a.75.75 0 0 0-.74.87l1.2 5.92h.99L4.09 2.5h7.82l-.6 5.29h.98l1.2-5.92a.75.75 0 0 0-.74-.87Z"/><path fill="#f39b00" d="m8.75 2.5.5 2.5c.1.5.4.5.5 0l.5-2.5zm-3 0 .5 2.5c.1.5.4.5.5 0l.5-2.5z"/></symbol><symbol viewBox="0 0 16 16" id="icon_owner" xmlns="http://www.w3.org/2000/svg"><path fill="none" stroke="#00a8ff" stroke-linecap="round" stroke-linejoin="round" stroke-width="2" d="M3 13h10m-2-3H5L4 3h8z"/></symbol><symbol viewBox="0 0 9 9" id="remove" xmlns="http://www.w3.org/2000/svg"><path fill="none" stroke="#FFF" stroke-linecap="round" stroke-linejoin="round" stroke-width=".8" d="m1 8 7-7M1 1l7 7"/></symbol></svg>