<?xml version="1.0" encoding="utf-8"?><svg xmlns="http://www.w3.org/2000/svg" xmlns:xlink="http://www.w3.org/1999/xlink"><symbol viewBox="0 0 28 28" id="favorite" xmlns="http://www.w3.org/2000/svg"><path style="fill:none;fill-opacity:1;stroke:#fec200;stroke-width:2.00001769;stroke-linecap:round;stroke-linejoin:round;stroke-miterlimit:4;stroke-dasharray:none;stroke-opacity:1" d="m14 1 4.178 7.919L27 10.445l-6.24 6.42 1.275 8.863L14 21.777l-8.035 3.95 1.275-8.862L1 10.445l8.822-1.526z" transform="matrix(1 0 0 .99998 0 .637)"/></symbol><symbol viewBox="0 0 28 28" id="favorite_full" xmlns="http://www.w3.org/2000/svg"><path transform="matrix(1 0 0 .99998 0 .637)" d="m14 1 4.178 7.919L27 10.445l-6.24 6.42 1.275 8.863L14 21.777l-8.035 3.95 1.275-8.862L1 10.445l8.822-1.526z" style="fill:#fec200;fill-opacity:1;stroke:#fec200;stroke-width:2.00001769;stroke-linecap:round;stroke-linejoin:round;stroke-miterlimit:4;stroke-dasharray:none;stroke-opacity:1"/></symbol><symbol viewBox="0 0 28 28" id="more" xmlns="http://www.w3.org/2000/svg"><g style="display:inline"><circle r="2.5" cy="13.5" cx="3.5" style="fill:none;stroke:#fff;stroke-width:2;stroke-linecap:round;stroke-linejoin:round"/><circle style="fill:none;stroke:#fff;stroke-width:2;stroke-linecap:round;stroke-linejoin:round" cx="13.5" cy="13.473" r="2.5"/><circle r="2.5" cy="13.308" cx="23.5" style="fill:none;stroke:#fff;stroke-width:2;stroke-linecap:round;stroke-linejoin:round"/></g></symbol><symbol viewBox="0 0 28 28" id="more_full" xmlns="http://www.w3.org/2000/svg"><g style="display:inline"><circle style="fill:#fff;stroke:#fff;stroke-width:2;stroke-linecap:round;stroke-linejoin:round;fill-opacity:1" cx="3.5" cy="13.5" r="2.5"/><circle r="2.5" cy="13.473" cx="13.5" style="fill:#fff;stroke:#fff;stroke-width:2;stroke-linecap:round;stroke-linejoin:round;fill-opacity:1"/><circle style="fill:#fff;stroke:#fff;stroke-width:2;stroke-linecap:round;stroke-linejoin:round;fill-opacity:1" cx="23.5" cy="13.308" r="2.5"/></g></symbol><symbol viewBox="0 0 7.408 7.408" id="thumbsdown" xmlns="http://www.w3.org/2000/svg"><path style="fill:none;stroke:#fff;stroke-width:.529167;stroke-linecap:butt;stroke-linejoin:round;stroke-miterlimit:4;stroke-dasharray:none;stroke-opacity:1" d="M5.292 4.233V.265h-3.44L.265 1.852v3.175H2.91v2.117h1.588z"/><path style="fill:none;stroke:#fff;stroke-width:.529167;stroke-linecap:round;stroke-linejoin:round;stroke-miterlimit:4;stroke-dasharray:none;stroke-opacity:1" d="M5.292 1.852h1.587v2.381H5.292"/></symbol><symbol viewBox="0 0 7.408 7.408" id="thumbsdown_full" xmlns="http://www.w3.org/2000/svg"><path style="fill:#fff;stroke:none;stroke-width:.529167;stroke-linecap:butt;stroke-linejoin:round;stroke-miterlimit:4;stroke-dasharray:none;stroke-opacity:1;fill-opacity:1" d="M5.292 3.983V.515a.25.25 45 0 0-.25-.25h-2.94a.604.604 157.5 0 0-.427.176L.441 1.675a.604.604 112.5 0 0-.176.427v2.675a.25.25 45 0 0 .25.25H2.66a.25.25 45 0 1 .25.25v1.617a.25.25 45 0 0 .25.25h1.088a.327.327 142.628 0 0 .316-.241l.662-2.428a1.867 1.867 97.628 0 0 .066-.492z"/><path style="fill:#fff;fill-opacity:1;stroke:none;stroke-width:.432063;stroke-linecap:round;stroke-linejoin:round;stroke-miterlimit:4;stroke-dasharray:none;stroke-opacity:1" d="M5.835 1.852h.808a.25.25 45 0 1 .25.25v1.881a.25.25 135 0 1-.25.25h-.808"/></symbol><symbol viewBox="0 0 7.408 7.408" id="thumbsup" xmlns="http://www.w3.org/2000/svg"><path style="fill:none;stroke:#fff;stroke-width:.529167;stroke-linecap:butt;stroke-linejoin:round;stroke-miterlimit:4;stroke-dasharray:none;stroke-opacity:1" d="M1.852 3.175v3.969h3.44l1.587-1.588V2.381H4.233V.265H2.646z"/><path style="fill:none;stroke:#fff;stroke-width:.529167;stroke-linecap:round;stroke-linejoin:round;stroke-miterlimit:4;stroke-dasharray:none;stroke-opacity:1" d="M1.852 5.556H.265V3.175h1.587"/></symbol><symbol viewBox="0 0 7.408 7.408" id="thumbsup_full" xmlns="http://www.w3.org/2000/svg"><path style="fill:#fff;stroke:none;stroke-width:.52900003;stroke-linecap:butt;stroke-linejoin:round;stroke-miterlimit:4;stroke-dasharray:none;stroke-opacity:1;fill-opacity:1" d="M1.852 3.425v3.469a.25.25 45 0 0 .25.25h2.94a.604.604 157.5 0 0 .426-.177l1.234-1.234a.604.604 112.5 0 0 .177-.427V2.631a.25.25 45 0 0-.25-.25H4.483a.25.25 45 0 1-.25-.25V.515a.25.25 45 0 0-.25-.25H2.896a.327.327 142.628 0 0-.316.24l-.662 2.429a1.867 1.867 97.628 0 0-.066.491z"/><path style="fill:#fff;fill-opacity:1;stroke:none;stroke-width:.432063;stroke-linecap:round;stroke-linejoin:round;stroke-miterlimit:4;stroke-dasharray:none;stroke-opacity:1" d="M1.323 5.556H.515a.25.25 45 0 1-.25-.25V3.425a.25.25 135 0 1 .25-.25h.808"/></symbol></svg>