<?xml version="1.0" encoding="utf-8"?><svg xmlns="http://www.w3.org/2000/svg" xmlns:xlink="http://www.w3.org/1999/xlink"><symbol viewBox="0 0 20 20" id="accessories" xmlns="http://www.w3.org/2000/svg"><g stroke="#000" stroke-linecap="round" stroke-linejoin="round" stroke-width="2"><path fill="none" d="M5 15h10"/><path d="M13 12H7L6 5h8z"/></g></symbol><symbol viewBox="0 0 8.47 8.47" id="active_copies" xmlns="http://www.w3.org/2000/svg"><path d="M7.4 4.76a.4.4 0 0 0-.39.4v.72a.6.6 0 0 1-.6.6h-.56l.25-.25a.4.4 0 0 0 0-.56.4.4 0 0 0-.56 0l-.93.93a.4.4 0 0 0 0 .56l.93.93a.4.4 0 0 0 .56 0 .4.4 0 0 0 0-.56l-.25-.25h.56c.76 0 1.4-.63 1.4-1.4v-.72a.4.4 0 0 0-.4-.4ZM3.05.26a.4.4 0 0 0-.28.12.4.4 0 0 0 0 .56l.25.25h-.55c-.77 0-1.4.63-1.4 1.4v.72a.4.4 0 0 0 .4.4.4.4 0 0 0 .4-.4v-.72c0-.34.26-.6.6-.6H3l-.25.24a.4.4 0 0 0 0 .56.4.4 0 0 0 .56 0l.93-.92a.4.4 0 0 0 0-.56L3.32.38a.4.4 0 0 0-.28-.12ZM.79 4.23a.4.4 0 0 0-.39.45l.26 1.99a.4.4 0 0 0 .4.34h1.59a.4.4 0 0 0 .39-.34l.26-1.99a.4.4 0 0 0-.39-.45Zm.46.8h1.2L2.3 6.22h-.9ZM.4 7.28a.4.4 0 0 0-.4.4.4.4 0 0 0 .4.39h2.9a.4.4 0 0 0 .4-.4.4.4 0 0 0-.4-.4ZM5.56.4a.4.4 0 0 0-.4.45l.27 1.98a.4.4 0 0 0 .39.35h1.59a.4.4 0 0 0 .4-.35L8.06.85a.4.4 0 0 0-.4-.45Zm.45.8h1.2l-.15 1.18h-.9Zm-.85 2.24a.4.4 0 0 0-.4.4.4.4 0 0 0 .4.4h2.91a.4.4 0 0 0 .4-.4.4.4 0 0 0-.4-.4Z"/></symbol><symbol viewBox="0 0 28 28" id="all" xmlns="http://www.w3.org/2000/svg"><path transform="matrix(1 0 0 .99998 0 .637)" d="m14 1 4.178 7.919L27 10.445l-6.24 6.42 1.275 8.863L14 21.777l-8.035 3.95 1.275-8.862L1 10.445l8.822-1.526z" style="fill:#000;fill-opacity:1;stroke:#000;stroke-width:2.00001769;stroke-linecap:round;stroke-linejoin:round;stroke-miterlimit:4;stroke-dasharray:none;stroke-opacity:1"/></symbol><symbol viewBox="0 0 8.47 8.47" id="avg_daily_views" xmlns="http://www.w3.org/2000/svg"><path d="M6.263 0a.397.397 0 0 0-.291.148L4.125 2.461l-1.778-.463a.397.397 0 0 0-.41.14l-.746.947v1.283l1.206-1.537 1.778.463a.397.397 0 0 0 .41-.135l1.675-2.1 1.087 1.55a.398.398 0 1 0 .651-.458L6.604.167A.397.397 0 0 0 6.263 0ZM.397 0A.396.396 0 0 0 0 .397V6.35c0 .217.177.397.397.397h1.069c-.053-.082-.109-.164-.159-.252a.794.794 0 0 1-.106-.542H.794V.397C.794.177.614 0 .397 0Zm4.63 5.027c-.58 0-1.058.476-1.058 1.058 0 .58.479 1.059 1.058 1.059.582 0 1.058-.48 1.058-1.059 0-.582-.476-1.058-1.058-1.058zm0-1.323c-1.154 0-2.418.582-3.381 2.175a.397.397 0 0 0 0 .41c.963 1.595 2.227 2.178 3.381 2.178s2.418-.583 3.384-2.178a.397.397 0 0 0 0-.41c-.966-1.593-2.23-2.175-3.384-2.175zm0 .794c.841 0 1.707.407 2.514 1.587-.807 1.18-1.673 1.588-2.514 1.588-.841 0-1.707-.408-2.513-1.588.806-1.18 1.672-1.587 2.513-1.587z"/></symbol><symbol viewBox="0 0 20 20" id="bits_full" xmlns="http://www.w3.org/2000/svg"><circle cx="10" cy="10" r="5" fill="#FFF"/><circle cx="10" cy="10" r="9" fill="none" stroke="#FFF" stroke-linecap="round" stroke-linejoin="round" stroke-width="2"/></symbol><symbol viewBox="0 0 20 20" id="bits_full_color" xmlns="http://www.w3.org/2000/svg"><path fill="#f39b00" d="M17.06 2.92a10 10 0 0 0-14.13 0 10 10 0 0 0 0 14.15 10 10 0 0 0 14.14 0 10 10 0 0 0 0-14.14 10 10 0 0 0-.01-.01zm-1.4 1.42a8 8 0 0 1 0 11.32 8 8 0 0 1-11.32 0 8 8 0 0 1 0-11.32 8 8 0 0 1 11.32 0zm-2.12 9.2a5 5 0 0 1-7.08 0 5 5 0 0 1 0-7.08 5 5 0 0 1 7.08 0 5 5 0 0 1 0 7.08"/></symbol><symbol viewBox="0 0 20 20" id="body_parts" xmlns="http://www.w3.org/2000/svg"><path style="color:#000;font-style:normal;font-variant:normal;font-weight:400;font-stretch:normal;font-size:medium;line-height:normal;font-family:sans-serif;font-variant-ligatures:normal;font-variant-position:normal;font-variant-caps:normal;font-variant-numeric:normal;font-variant-alternates:normal;font-variant-east-asian:normal;font-feature-settings:normal;font-variation-settings:normal;text-indent:0;text-align:start;text-decoration:none;text-decoration-line:none;text-decoration-style:solid;text-decoration-color:#000;letter-spacing:normal;word-spacing:normal;text-transform:none;writing-mode:lr-tb;direction:ltr;text-orientation:mixed;dominant-baseline:auto;baseline-shift:baseline;text-anchor:start;white-space:normal;shape-padding:0;shape-margin:0;inline-size:0;clip-rule:nonzero;display:inline;overflow:visible;visibility:visible;isolation:auto;mix-blend-mode:normal;color-interpolation:sRGB;color-interpolation-filters:linearRGB;solid-color:#000;solid-opacity:1;vector-effect:none;fill:#000;fill-opacity:1;fill-rule:nonzero;stroke:none;stroke-width:2;stroke-linecap:butt;stroke-linejoin:miter;stroke-miterlimit:4;stroke-dasharray:none;stroke-dashoffset:0;stroke-opacity:1;color-rendering:auto;image-rendering:auto;shape-rendering:auto;text-rendering:auto;enable-background:accumulate;stop-color:#000" d="M9.188 0A2.45 2.45 0 0 0 6.75 2.437v1.625A2.45 2.45 0 0 0 9.188 6.5h1.624a2.45 2.45 0 0 0 2.438-2.438V2.437A2.45 2.45 0 0 0 10.812 0z"/><path style="fill:#000;fill-opacity:1;stroke-width:1.5;stroke-linecap:round;stroke-linejoin:round" d="M3 6a1 1 0 0 0-1 1v5a1 1 0 0 0 1 1h3v5a1 1 0 0 0 1 1h1.875a1 1 0 0 0 1-1v-3.875A.125.125 0 0 1 10 14a.125.125 0 0 1 .125.125V18a1 1 0 0 0 1 1H13a1 1 0 0 0 1-1v-5h3a1 1 0 0 0 1-1V7a1 1 0 0 0-1-1h-3.357a3.444 3.444 0 0 1-2.83 1.5H9.187A3.444 3.444 0 0 1 6.357 6z"/></symbol><symbol viewBox="0 0 20 20" id="bucks_full" xmlns="http://www.w3.org/2000/svg"><path d="M10 0c-.54 0-1.08.13-1.58.38l-6.76 3.5A3.01 3.01 0 0 0 0 6.35c-.03 2.37 0 4.77 0 7.15a3 3 0 0 0 1.66 2.62l6.76 3.5c1 .5 2.17.5 3.16 0l6.76-3.5A2.99 2.99 0 0 0 20 13.5c-.01-2.38.04-4.8 0-7.16a3.01 3.01 0 0 0-1.66-2.46L11.58.38A3.43 3.43 0 0 0 10 0Zm0 2c.23 0 .46.06.66.16l6.76 3.5c.4.2.58.52.58.84 0 .32-.18.64-.38.74l-6.96 3.6c-.4.2-.92.2-1.32 0l-6.96-3.6c-.2-.1-.38-.42-.38-.74s.18-.64.58-.84l6.76-3.5c.2-.1.43-.15.66-.15Z" fill="#FFF"/></symbol><symbol viewBox="0 0 20 20" id="bucks_full_color" xmlns="http://www.w3.org/2000/svg"><path fill="#007b1f" d="M10 0c-.54 0-1.08.13-1.58.38l-6.76 3.5A3.01 3.01 0 0 0 0 6.35c-.03 2.37 0 4.77 0 7.15a3 3 0 0 0 1.66 2.62l6.76 3.5c1 .5 2.17.5 3.16 0l6.76-3.5A2.99 2.99 0 0 0 20 13.5c-.01-2.38.04-4.8 0-7.16a3.01 3.01 0 0 0-1.66-2.46L11.58.38A3.43 3.43 0 0 0 10 0Zm0 2c.23 0 .46.06.66.16l6.76 3.5c.4.2.58.52.58.84 0 .32-.18.64-.38.74l-6.96 3.6c-.4.2-.92.2-1.32 0l-6.96-3.6c-.2-.1-.38-.42-.38-.74s.18-.64.58-.84l6.76-3.5c.2-.1.43-.15.66-.15Z"/></symbol><symbol viewBox="0 0 20 20" id="clothing" xmlns="http://www.w3.org/2000/svg"><path style="fill:#000;fill-opacity:1;stroke:none;stroke-width:1px;stroke-linecap:butt;stroke-linejoin:miter;stroke-opacity:1" d="m4.526 4.158-1.577.526A1.387 1.387 125.783 0 0 2 6v3a.737.737 36.38 0 0 .955.704L5.223 9v6a1 1 45 0 0 1 1h7.554a1 1 135 0 0 1-1V9l2.268.704A.737.737 143.62 0 0 18 9V6a1.387 1.387 54.217 0 0-.949-1.316l-1.577-.526A3.081 3.081 9.217 0 0 14.5 4h-1c-.276 0-.493.232-.59.489C12.582 5.357 11.404 6 10 6c-1.404 0-2.582-.643-2.91-1.511C6.993 4.232 6.776 4 6.5 4h-1a3.081 3.081 170.783 0 0-.974.158z"/></symbol><symbol viewBox="0 0 20 20" id="designer_verified" xmlns="http://www.w3.org/2000/svg"><g fill="none" stroke="#000" stroke-linecap="round" stroke-linejoin="round" stroke-width="2"><path d="M6 5.5V5a4 4 0 1 1 8 0v.5M16.5 8h-13l-2 11h17z"/><path d="m13 11-3.5 5L7 14"/></g></symbol><symbol viewBox="0 0 14 14" id="designer_verified_full" xmlns="http://www.w3.org/2000/svg"><path d="M2.4 5a.9.9 0 0 0-.89.74L.13 13.26c-.07.39.23.74.62.74h12.5c.4 0 .69-.35.62-.74l-1.38-7.52A.9.9 0 0 0 11.6 5H2.4zm7.62 1.25a.75.75 0 0 1 .41.13.75.75 0 0 1 .19 1.05l-3.5 5a.75.75 0 0 1-1.09.16l-2.5-2a.75.75 0 0 1-.12-1.06.75.75 0 0 1 1.06-.12l1.87 1.5 3.04-4.34a.75.75 0 0 1 .64-.32z"/><path fill="none" stroke="#000" stroke-linecap="round" stroke-linejoin="round" stroke-width="1.5" d="M4.25 3.5v-.2C4.25 1.9 5.48.75 7 .75S9.75 1.89 9.75 3.3v.2"/></symbol><symbol viewBox="0 0 20 20" id="emotes" xmlns="http://www.w3.org/2000/svg"><path d="M10 2a8 8 0 1 0 0 16 8 8 0 0 0 0-16zM7.5 5a1.5 1.5 0 1 1 0 3 1.5 1.5 0 0 1 0-3zm5 0a1.5 1.5 0 1 1 0 3 1.5 1.5 0 0 1 0-3zM6.023 9.855h8a1 1 0 0 1 1 1c0 2.75-2.25 5-5 5s-5-2.25-5-5a1 1 0 0 1 1-1zm1.413 2c.436 1.113 1.311 2 2.587 2 1.277 0 2.151-.887 2.588-2z" style="fill:#0a0000;fill-opacity:1;stroke:none;stroke-width:2;stroke-linecap:round;stroke-linejoin:round;stroke-miterlimit:4;stroke-dasharray:none;stroke-opacity:1"/></symbol><symbol viewBox="0 0 20 20" id="event" xmlns="http://www.w3.org/2000/svg"><path fill="#00A9FE" d="M11.81.41a1 1 0 0 0-.73.3L9.32 2.46c-.39.4-.18.6.18.97a1 1 0 1 1-1.41 1.41c-.36-.36-.58-.57-.97-.18L.71 11.08a1 1 0 0 0 0 1.41l1.28 1.28c.2.2.5.2.73.04a2.5 2.5 0 0 1 3.47 3.47c-.15.23-.16.54.04.73L7.5 19.3a1 1 0 0 0 1.41 0l6.42-6.41c.39-.4.18-.6-.18-.97a1 1 0 1 1 1.41-1.41c.36.36.57.57.97.18l1.75-1.76a1 1 0 0 0 0-1.41L18 6.24c-.2-.2-.5-.2-.73-.04a2.5 2.5 0 0 1-3.47-3.47c.15-.23.16-.54-.04-.73L12.5.7a1 1 0 0 0-.68-.3Zm-1.25 4.5a1 1 0 0 1 .7 1.7 1 1 0 1 1-.7-1.7Zm1.77 1.76a1 1 0 0 1 .7 1.7 1 1 0 1 1-.7-1.7zm1.77 1.77a1 1 0 0 1 .7 1.7 1 1 0 1 1-.7-1.7z"/></symbol><symbol viewBox="0 0 20 20" id="hat_series" xmlns="http://www.w3.org/2000/svg"><path d="M4 2a1 1 0 0 0-.99 1.14l1 7A1 1 0 0 0 5 11h1.25a1.9 1.9 0 0 1 1.22-.93A4.75 4.75 0 0 0 9.53 9H5.87l-.72-5h5.7l-.58 4.04c.08-.13.17-.27.23-.4.47-.96.5-1.73.5-1.73A2 2 0 0 1 12.87 4l.12-.87A1 1 0 0 0 12 2ZM3 12a1 1 0 0 0-1 1 1 1 0 0 0 1 1h4.68l-.21-.07A1.96 1.96 0 0 1 5.99 12Z"/><path fill="none" stroke="#000" stroke-linecap="round" stroke-linejoin="round" stroke-width="1.75" d="M13 18.01s.18-4.71 5.01-6.01C13.18 10.7 13 5.99 13 5.99S12.82 10.7 7.99 12C12.8 13.3 13 18.01 13 18.01z"/></symbol><symbol viewBox="0 0 20 20" id="hat_series_full" xmlns="http://www.w3.org/2000/svg"><path d="M4 2a1 1 0 0 0-.99 1.14l1 7c.07.5.5.86.99.86h1.25a1.9 1.9 0 0 1 1.22-.93 4.27 4.27 0 0 0 3.03-2.43c.47-.96.5-1.73.5-1.73A2 2 0 0 1 12.87 4l.12-.87A1 1 0 0 0 12 2ZM3 12a1 1 0 1 0 0 2h4.68l-.21-.07A1.96 1.96 0 0 1 5.99 12Z"/><path fill="none" stroke="#000" stroke-linecap="round" stroke-linejoin="round" stroke-width="1.75" d="M13 18.01s.18-4.71 5.01-6.01C13.18 10.7 13 5.99 13 5.99S12.82 10.7 7.99 12C12.8 13.3 13 18.01 13 18.01z"/></symbol><symbol viewBox="0 0 20 20" id="hat_versions" xmlns="http://www.w3.org/2000/svg"><path d="M-36 2a1 1 0 0 0-.99 1.14l1 7c.07.5.5.86.99.86h2.34a6 6 0 0 1 5.1-3.97l.55-3.89A1 1 0 0 0-28 2h-8zm-1 10a1 1 0 1 0 0 2h4.08a6 6 0 0 1-.08-1 6 6 0 0 1 .08-1H-37z"/><circle cx="13" cy="13" r="4.13" fill="none" stroke="#000" stroke-linecap="round" stroke-linejoin="round" stroke-width="1.75"/><path fill="none" stroke="#000" stroke-linecap="round" stroke-linejoin="round" stroke-width="1.75" d="M13 11v2l1.25 1.5"/><path d="M4 2a1 1 0 0 0-.99 1.14l1 7A1 1 0 0 0 5 11h2.34a6 6 0 0 1 1.19-2H5.87l-.72-5h5.7l-.52 3.63a6 6 0 0 1 2.1-.6L13 3.14A1 1 0 0 0 12 2ZM3 12a1 1 0 0 0-1 1 1 1 0 0 0 1 1h4.08A6 6 0 0 1 7 13a6 6 0 0 1 .08-1Z"/></symbol><symbol viewBox="0 0 20 20" id="hat_versions_full" xmlns="http://www.w3.org/2000/svg"><path d="M4 2a1 1 0 0 0-.99 1.14l1 7c.07.5.5.86.99.86h2.34a6 6 0 0 1 5.1-3.97l.55-3.89A1 1 0 0 0 12 2ZM3 12a1 1 0 1 0 0 2h4.08A6 6 0 0 1 7 13a6 6 0 0 1 .08-1Z"/><circle cx="13" cy="13" r="4.13" fill="none" stroke="#000" stroke-linecap="round" stroke-linejoin="round" stroke-width="1.75"/><path fill="none" stroke="#000" stroke-linecap="round" stroke-linejoin="round" stroke-width="1.75" d="M13 11v2l1.25 1.5"/></symbol><symbol viewBox="0 0 20 20" id="hat_wishlist" xmlns="http://www.w3.org/2000/svg"><path fill="none" stroke="#000" stroke-linecap="round" stroke-linejoin="round" stroke-width="1.75" d="M12.75 16.5s4.75-2.84 4.75-6.14A2.3 2.3 0 0 0 15.12 8c-1.9 0-2.37 1.89-2.37 1.89S12.27 8 10.37 8A2.3 2.3 0 0 0 8 10.36c0 3.3 4.75 6.14 4.75 6.14z"/><path d="M4 2a1 1 0 0 0-.99 1.14l1 7A1 1 0 0 0 5 11h1.05c-.02-.21-.05-.42-.05-.64 0-.47.1-.92.25-1.36h-.38l-.72-5h5.7l-.3 2.02a4.1 4.1 0 0 1 1.94.6l.5-3.48A1 1 0 0 0 12 2H4zM3 12a1 1 0 0 0-1 1 1 1 0 0 0 1 1h4.17c-.4-.6-.73-1.26-.94-2H3zM-16 2a1 1 0 0 0-.99 1.14l1 7c.07.5.5.86.99.86h1.05c-.02-.21-.05-.42-.05-.64A4.46 4.46 0 0 1-9.62 6c.83 0 1.52.27 2.11.63l.5-3.49A1 1 0 0 0-8 2h-8zm-1 10a1 1 0 1 0 0 2h4.17c-.4-.6-.73-1.26-.94-2H-17z"/></symbol><symbol viewBox="0 0 20 20" id="hat_wishlist_full" xmlns="http://www.w3.org/2000/svg"><path fill="none" stroke="#000" stroke-linecap="round" stroke-linejoin="round" stroke-width="1.75" d="M12.75 16.5s4.75-2.84 4.75-6.14A2.3 2.3 0 0 0 15.12 8c-1.9 0-2.37 1.89-2.37 1.89S12.27 8 10.37 8A2.3 2.3 0 0 0 8 10.36c0 3.3 4.75 6.14 4.75 6.14z"/><path d="M4 2a1 1 0 0 0-.99 1.14l1 7c.07.5.5.86.99.86h1.05c-.02-.21-.05-.42-.05-.64A4.46 4.46 0 0 1 10.38 6c.83 0 1.52.27 2.11.63l.5-3.49A1 1 0 0 0 12 2ZM3 12a1 1 0 1 0 0 2h4.17c-.4-.6-.73-1.26-.94-2Z" color="#000"/></symbol><symbol viewBox="0 0 6.35 6.35" id="item_own" xmlns="http://www.w3.org/2000/svg"><path fill="#fff" d="M5.07 1.13 2.35 3.79 1.33 2.63a.38.38 0 0 0-.54-.04l-.42.37a.38.38 0 0 0-.04.54l1.48 1.69c.25.28.7.3.96.04L6 2.08a.39.39 0 0 0 0-.54l-.38-.4a.38.38 0 0 0-.54-.01z" color="#000"/></symbol><symbol viewBox="0 0 6.35 6.35" id="item_own_special_e" xmlns="http://www.w3.org/2000/svg"><path fill="#fc282a" d="M5.07 1.13 2.35 3.79 1.33 2.63a.38.38 0 0 0-.54-.04l-.42.37a.38.38 0 0 0-.04.54l1.48 1.69c.25.28.7.3.96.04L6 2.08a.39.39 0 0 0 0-.54l-.38-.4a.38.38 0 0 0-.54-.01z" color="#000"/></symbol><symbol viewBox="0 0 6.35 6.35" id="item_special" xmlns="http://www.w3.org/2000/svg"><path fill="#fff" d="M55.9 25.42a.6.6 0 0 0-.54.36l-.58 1.4-1.5.11a.6.6 0 0 0-.52.41.6.6 0 0 0 .18.64l1.15.98-.36 1.47a.6.6 0 0 0 .23.61.6.6 0 0 0 .66.03l1.29-.79 1.29.79c.21.13.48.1.65-.03a.6.6 0 0 0 .23-.61l-.35-1.47 1.15-.98a.6.6 0 0 0 .18-.64.6.6 0 0 0-.52-.4l-1.5-.13-.58-1.39a.6.6 0 0 0-.55-.36Z" color="#000" font-family="sans-serif" font-weight="400" overflow="visible" style="line-height:normal;font-variant-ligatures:normal;font-variant-position:normal;font-variant-caps:normal;font-variant-numeric:normal;font-variant-alternates:normal;font-variant-east-asian:normal;font-feature-settings:normal;font-variation-settings:normal;text-indent:0;text-align:start;text-decoration-line:none;text-decoration-style:solid;text-decoration-color:#000;text-transform:none;text-orientation:mixed;white-space:normal;shape-padding:0;shape-margin:0;inline-size:0;isolation:auto;mix-blend-mode:normal;solid-color:#000;solid-opacity:1" transform="translate(-52.73 -25.3)"/></symbol><symbol viewBox="0 0 6.35 6.35" id="item_special_e" xmlns="http://www.w3.org/2000/svg"><path fill="#fc282a" d="M3.17.12a.6.6 0 0 0-.54.36l-.58 1.4-1.5.11a.6.6 0 0 0-.52.41.6.6 0 0 0 .18.64l1.15.98L1 5.49a.6.6 0 0 0 .23.61.6.6 0 0 0 .66.03l1.29-.79 1.29.79c.21.13.48.1.65-.03a.6.6 0 0 0 .23-.61L5 4.02l1.15-.98a.6.6 0 0 0 .18-.64.6.6 0 0 0-.52-.4l-1.5-.13L3.73.48a.6.6 0 0 0-.55-.36Z"/></symbol><symbol viewBox="0 0 20 20" id="outfits" xmlns="http://www.w3.org/2000/svg"><path d="M8.007 6c0-1.105.892-2 1.993-2s1.994.895 1.994 2S11.299 7.75 10 8.5m0 .5-6.454 4c-1.02.633-.498 2.5.763 2.5h11.382c1.261 0 1.784-1.867.763-2.5z" style="fill:none;stroke:#000;stroke-width:2;stroke-linecap:round;stroke-linejoin:round;stroke-miterlimit:4;stroke-dasharray:none;stroke-opacity:1"/></symbol><symbol viewBox="0 0 8.47 8.47" id="recent_avg_price" xmlns="http://www.w3.org/2000/svg"><path d="M6.263 0a.397.397 0 0 0-.291.148L4.125 2.461l-1.778-.463a.397.397 0 0 0-.41.14l-.746.947v1.283l1.206-1.537 1.778.463a.397.397 0 0 0 .41-.135l1.675-2.1 1.087 1.55a.398.398 0 1 0 .651-.458L6.604.167A.397.397 0 0 0 6.263 0zM5.82 3.175a.916.916 0 0 0-.416.1l-1.788.927a.796.796 0 0 0-.442.653c-.008.627 0 1.262 0 1.892 0 .29.177.555.44.693l1.788.926a.92.92 0 0 0 .83 0l1.79-.926a.791.791 0 0 0 .438-.693c-.005-.63.008-1.27 0-1.895a.796.796 0 0 0-.439-.65l-1.788-.926a.905.905 0 0 0-.413-.101Zm0 .714c.053 0 .103.01.145.032l1.511.783c.087.045.13.117.13.188 0 .072-.043.143-.088.167l-1.553.804a.33.33 0 0 1-.29 0L4.12 5.06c-.043-.024-.085-.095-.085-.167s.042-.143.13-.188l1.508-.783a.346.346 0 0 1 .148-.032zM.397 0A.396.396 0 0 0 0 .397V6.35c0 .217.177.397.397.397H2.78v-.794H.794V.397C.794.177.614 0 .397 0Z"/></symbol><symbol viewBox="0 0 4.233 4.233" id="tag" xmlns="http://www.w3.org/2000/svg"><path transform="rotate(-45)" d="M-1.123 1.497-.53.904a.75.75 0 0 1 1.06 0l.593.593V4.49h-2.246z" style="fill:none;stroke:#000;stroke-width:.39687501;stroke-linecap:round;stroke-linejoin:round;stroke-miterlimit:4;stroke-dasharray:none;stroke-opacity:1"/><circle cy="1.323" cx="1.323" style="fill:#000;fill-opacity:1;stroke:none;stroke-width:.529167;stroke-linecap:round;stroke-linejoin:round;stroke-miterlimit:4;stroke-dasharray:none;stroke-opacity:1" r=".397"/></symbol><symbol viewBox="0 0 1.852 1.852" id="tag_dot"><circle transform="matrix(1 0 0 -1 -52.406 -67.336)" cy="-68.263" cx="53.332" style="fill:none;stroke:#fff;stroke-width:.264583;stroke-linecap:round;stroke-linejoin:round;stroke-miterlimit:4;stroke-dasharray:none;stroke-dashoffset:22.4;stroke-opacity:1" r=".794"/></symbol><symbol viewBox="0 0 20 20" id="template" xmlns="http://www.w3.org/2000/svg"><path fill="#fff" d="M15 9.977a1 1 0 0 0-1 1V14h-3.023a1 1 0 0 0-1 1 1 1 0 0 0 1 1H14v3.023a1 1 0 0 0 1 1 1 1 0 0 0 1-1V16h3.023a1 1 0 0 0 1-1 1 1 0 0 0-1-1H16v-3.023a1 1 0 0 0-1-1ZM4 0C1.803 0 0 1.803 0 4v12c0 2.197 1.803 4 4 4h8.705a2.45 2.45 0 0 1-.205-.977V17.5h-1.523c-.346 0-.675-.074-.977-.205V18H6v-4H2v-4h4V6H2V4c0-1.116.884-2 2-2h2v4h4V2h4v4h4v4h-.705c.131.302.205.631.205.977V12.5h1.523c.345 0 .676.074.977.205V4c0-2.197-1.803-4-4-4Zm10 6h-4v4h2.705A2.557 2.557 0 0 1 14 8.695Zm-4 4H6v4h2.695A2.557 2.557 0 0 1 10 12.705Zm9.736 7.38a2.41 2.41 0 0 1-.713.12H17.5v1.523c0 .249-.05.486-.12.713a4.015 4.015 0 0 0 2.356-2.355z" color="#000"/></symbol><symbol viewBox="0 0 14 14" id="timer" xmlns="http://www.w3.org/2000/svg"><path fill="#dc0f17" d="M7.004 0C3.15 0 0 3.145 0 7s3.15 7 7.004 7C10.857 14 14 10.855 14 7s-3.143-7-6.996-7Zm0 2.001A4.98 4.98 0 0 1 12 7a4.98 4.98 0 0 1-4.996 4.999A4.987 4.987 0 0 1 2 7a4.987 4.987 0 0 1 5.004-4.999zm0 1.085A1 1 0 0 0 6 4.091V7a1 1 0 0 0 .236.642l1.816 2.179a1 1 0 1 0 1.535-1.278L8 6.638V4.091a1 1 0 0 0-.996-1.004Z"/></symbol><symbol viewBox="0 0 8.47 8.47" id="unique_owners" xmlns="http://www.w3.org/2000/svg"><path d="M4.942.01A1.117 1.117 0 0 0 3.85 1.136v.352a.794.794 0 0 1 .571.857l-.058.468c.17.112.365.178.582.178h.696c.608 0 1.093-.519 1.093-1.127v-.725A1.111 1.111 0 0 0 5.64.013zm0 .794h.699c.159 0 .299.133.299.331v.728c0 .198-.14.333-.3.333h-.698c-.158 0-.299-.135-.299-.333v-.725c0-.199.14-.334.3-.334zm2.02 1.757a1.524 1.524 0 0 1-.829.736.397.397 0 0 0 .204.055H7.68v1.762h-.995a.397.397 0 0 0-.397.397v2.154h-.6V6.236a.397.397 0 0 0-.397-.394.397.397 0 0 0-.397.397v1.426h-.6v-.812a.794.794 0 0 1-.194.023h-.598v1.18a.397.397 0 0 0 .397.397h1.132a.397.397 0 0 0 .26-.098.397.397 0 0 0 .262.098h1.132a.397.397 0 0 0 .397-.397V5.903h.995a.397.397 0 0 0 .396-.397v-2.55a.397.397 0 0 0-.396-.398ZM.864 1.852a.397.397 0 0 0-.391.445l.312 2.587a.397.397 0 0 0 .391.35H3.32a.397.397 0 0 0 .392-.35l.312-2.587a.397.397 0 0 0-.391-.445zm.45.794h1.868L2.969 4.44H1.532ZM.397 5.688A.397.397 0 0 0 0 6.085a.397.397 0 0 0 .397.397H4.1a.397.397 0 0 0 .397-.397.397.397 0 0 0-.397-.397z"/></symbol><symbol viewBox="0 0 8.47 8.47" id="volume_hoarded" xmlns="http://www.w3.org/2000/svg"><path d="M5.95 3.84v2.78h.8V3.84Zm-4.23 0v2.78h.8V3.84ZM.4 3.44v.8h2.72a1.17 1.17 0 0 1-.08-.4c0-.14.03-.28.08-.4zm4.95 0a1.17 1.17 0 0 1 0 .8h2.72v-.8Zm-1.13-.4a.8.8 0 0 0-.78.8.8.8 0 0 0 .4.68v.77a.4.4 0 0 0 .4.4.4.4 0 0 0 .4-.4v-.77a.8.8 0 0 0 .39-.68.8.8 0 0 0-.8-.8.8.8 0 0 0-.01 0zM1.9 1.46A1.9 1.9 0 0 0 0 3.36v3.26a.4.4 0 0 0 .4.4h7.67a.4.4 0 0 0 .4-.4V3.35a1.9 1.9 0 0 0-1.9-1.9zm0 .79h4.67c.61 0 1.1.49 1.1 1.1v2.87H.8V3.35c0-.61.5-1.1 1.1-1.1z"/></symbol><symbol viewBox="0 0 8.47 8.47" id="you_own" xmlns="http://www.w3.org/2000/svg"><path d="M4.512 6.782a.403.4 0 0 1-.445.059l-1.291-.684-1.292.667a.403.4 0 0 1-.587-.417l.252-1.417-1.024-1a.403.4 0 0 1 .21-.676l1.443-.2.637-1.3a.403.4 0 0 1 .721 0l.638 1.3 1.442.2a.403.4 0 0 1 .226.676L4.394 4.998l.252 1.417a.403.4 0 0 1-.134.367zm-.789-1.017-.16-.842a.403.4 0 0 1 .127-.342l.603-.6-.838-.116a.403.4 0 0 1-.302-.217l-.37-.767-.385.767a.403.4 0 0 1-.293.208l-.847.125.595.592a.403.4 0 0 1 .117.35l-.142.842.771-.4a.403.4 0 0 1 .37 0ZM4.94.005A1.115 1.108 0 0 0 3.841 1.13v.734a1.115 1.108 0 0 0 1.098 1.125l.696-.008a1.115 1.108 0 0 0 1.099-1.092v-.734c0-.6-.478-1.125-1.099-1.125zm-.008.792.713.008c.167 0 .302.134.302.334l-.009.725c0 .2-.134.333-.302.333h-.687c-.168 0-.302-.133-.302-.333l-.009-.725c0-.2.151-.334.302-.334zm2.013 1.75a1.53 1.52 0 0 1-.764.659.403.4 0 0 0 .168.167H7.69v1.734H6.684a.403.4 0 0 0-.386.4v2.167l-.62-.016V6.24c0-.216-.169-.4-.387-.4a.403.4 0 0 0-.301.3l.041.209a.806.802 0 0 1-.125.592v.717h-.62l.007-.376a.795.79 0 0 1-.419-.083L3.505 7l.009 1.059a.403.4 0 0 0 .385.417l1.132-.009a.38.377 0 0 0 .269-.1c.067.067.16.109.251.1l1.133.009a.403.4 0 0 0 .394-.409l-.017-2.15h1.006a.403.4 0 0 0 .403-.4V2.963c-.009-.225-.176-.408-.394-.408z"/></symbol></svg>