<?xml version="1.0" encoding="utf-8"?><svg xmlns="http://www.w3.org/2000/svg" xmlns:xlink="http://www.w3.org/1999/xlink"><symbol viewBox="0 0 16 16" id="error" xmlns="http://www.w3.org/2000/svg"><circle cy="8" cx="8" style="fill:none;fill-opacity:1;stroke:#dc0f18;stroke-width:2;stroke-linecap:round;stroke-linejoin:round;stroke-miterlimit:4;stroke-dasharray:none;stroke-opacity:1" r="7"/><path d="m11 5-6 6m6 0L5 5" style="fill:none;stroke:#dc0f18;stroke-width:2;stroke-linecap:round;stroke-linejoin:miter;stroke-miterlimit:4;stroke-dasharray:none;stroke-opacity:1"/></symbol><symbol viewBox="0 0 16 16" id="info" xmlns="http://www.w3.org/2000/svg"><path fill="none" stroke="#00a8ff" stroke-linecap="round" stroke-width="2" d="M8 8.5v-3"/><circle cx="8" cy="11.25" r="1" fill="#00a8ff"/><path fill="none" stroke="#00a8ff" stroke-linecap="round" stroke-linejoin="round" stroke-width="1.75" d="M13.13 14.08H3.38a1.15 1.15 60 0 1-1-1.73L7.26 3.9a1.15 1.15 0 0 1 2 0l4.87 8.45a1.15 1.15 120 0 1-1 1.73z" transform="matrix(1.16028 0 0 1.12194 -1.58 -1.78)"/></symbol><symbol viewBox="0 0 16 16" id="success" xmlns="http://www.w3.org/2000/svg"><path style="fill:none;fill-opacity:1;stroke:#30b747;stroke-width:2;stroke-linecap:round;stroke-linejoin:round;stroke-miterlimit:4;stroke-dasharray:none;stroke-opacity:1" d="m4.5 9 3 2.5 3.5-6"/><circle style="fill:none;fill-opacity:1;stroke:#30b747;stroke-width:2;stroke-linecap:round;stroke-linejoin:round;stroke-miterlimit:4;stroke-dasharray:none;stroke-opacity:1" cx="8" cy="8" r="7"/></symbol><symbol viewBox="0 0 16 16" id="warning" xmlns="http://www.w3.org/2000/svg"><circle style="fill:none;fill-opacity:1;stroke:#f39b00;stroke-width:2;stroke-linecap:round;stroke-linejoin:round;stroke-miterlimit:4;stroke-dasharray:none;stroke-opacity:1" cx="8" cy="8" r="7"/><path d="M8 9.5V3.75" style="fill:none;stroke:#f39b00;stroke-width:2;stroke-linecap:round;stroke-linejoin:miter;stroke-miterlimit:4;stroke-dasharray:none;stroke-opacity:1"/><circle r="1" cy="12.25" cx="8" style="fill:#f39b00;fill-opacity:1;stroke:#dc0f18;stroke-width:0;stroke-linecap:round;stroke-linejoin:round;stroke-miterlimit:4;stroke-dasharray:none"/></symbol></svg>